<svg width="80" height="80" viewBox="0 0 80 80" fill="none" xmlns="http://www.w3.org/2000/svg">
<rect width="80" height="80" rx="40" fill="url(#paint0_linear_894_10661)"/>
<path fill-rule="evenodd" clip-rule="evenodd" d="M28 42.6667C28.7363 42.6667 29.3333 43.2637 29.3333 44.0001V49.3334C29.3333 49.687 29.4738 50.0262 29.7238 50.2762C29.9739 50.5263 30.313 50.6667 30.6666 50.6667H49.3333C49.6869 50.6667 50.0261 50.5263 50.2761 50.2762C50.5262 50.0262 50.6666 49.687 50.6666 49.3334V44.0001C50.6666 43.2637 51.2636 42.6667 52 42.6667C52.7363 42.6667 53.3333 43.2637 53.3333 44.0001V49.3334C53.3333 50.3943 52.9119 51.4117 52.1617 52.1618C51.4116 52.912 50.3942 53.3334 49.3333 53.3334H30.6666C29.6058 53.3334 28.5883 52.912 27.8382 52.1618C27.0881 51.4117 26.6666 50.3943 26.6666 49.3334V44.0001C26.6666 43.2637 27.2636 42.6667 28 42.6667Z" fill="white"/>
<path fill-rule="evenodd" clip-rule="evenodd" d="M39.0572 27.0573C39.5778 26.5366 40.4221 26.5366 40.9428 27.0573L47.6094 33.7239C48.1301 34.2446 48.1301 35.0889 47.6094 35.6096C47.0887 36.1303 46.2445 36.1303 45.7238 35.6096L40 29.8857L34.2761 35.6096C33.7554 36.1303 32.9112 36.1303 32.3905 35.6096C31.8698 35.0889 31.8698 34.2446 32.3905 33.7239L39.0572 27.0573Z" fill="white"/>
<path fill-rule="evenodd" clip-rule="evenodd" d="M40 26.6667C40.7363 26.6667 41.3333 27.2637 41.3333 28.0001V44.0001C41.3333 44.7365 40.7363 45.3334 40 45.3334C39.2636 45.3334 38.6666 44.7365 38.6666 44.0001V28.0001C38.6666 27.2637 39.2636 26.6667 40 26.6667Z" fill="white"/>
<defs>
<linearGradient id="paint0_linear_894_10661" x1="18.8235" y1="-1.31171e-06" x2="68.2353" y2="75.2941" gradientUnits="userSpaceOnUse">
<stop stop-color="#92D5BD"/>
<stop offset="1" stop-color="#6D8FFF"/>
</linearGradient>
</defs>
</svg>
